<mxfile host="65bd71144e">
    <diagram id="oaxqC9Z0qp0wBgxF9rxI" name="Page-1">
        <mxGraphModel dx="2876" dy="2239" grid="1" gridSize="10" guides="1" tooltips="1" connect="1" arrows="1" fold="1" page="1" pageScale="1" pageWidth="850" pageHeight="1100" math="0" shadow="0">
            <root>
                <mxCell id="0"/>
                <mxCell id="1" parent="0"/>
                <mxCell id="2" value="Butiker" style="whiteSpace=wrap;html=1;align=center;" vertex="1" parent="1">
                    <mxGeometry x="400" y="320" width="100" height="40" as="geometry"/>
                </mxCell>
                <mxCell id="3" value="Adress" style="ellipse;whiteSpace=wrap;html=1;align=center;" vertex="1" parent="1">
                    <mxGeometry x="150" y="430" width="100" height="40" as="geometry"/>
                </mxCell>
                <mxCell id="4" value="Telefonnummer" style="ellipse;whiteSpace=wrap;html=1;align=center;fontStyle=4;" vertex="1" parent="1">
                    <mxGeometry x="110" y="220" width="100" height="40" as="geometry"/>
                </mxCell>
                <mxCell id="5" value="Stad" style="ellipse;whiteSpace=wrap;html=1;align=center;" vertex="1" parent="1">
                    <mxGeometry x="30" y="380" width="100" height="40" as="geometry"/>
                </mxCell>
                <mxCell id="6" value="Husnummer" style="ellipse;whiteSpace=wrap;html=1;align=center;" vertex="1" parent="1">
                    <mxGeometry x="-10" y="480" width="100" height="40" as="geometry"/>
                </mxCell>
                <mxCell id="7" value="Postnummer" style="ellipse;whiteSpace=wrap;html=1;align=center;" vertex="1" parent="1">
                    <mxGeometry x="130" y="550" width="100" height="40" as="geometry"/>
                </mxCell>
                <mxCell id="8" value="Gata" style="ellipse;whiteSpace=wrap;html=1;align=center;" vertex="1" parent="1">
                    <mxGeometry x="280" y="520" width="100" height="40" as="geometry"/>
                </mxCell>
                <mxCell id="9" value="Butiksnummer" style="ellipse;whiteSpace=wrap;html=1;align=center;fontStyle=4;" vertex="1" parent="1">
                    <mxGeometry x="140" y="130" width="100" height="40" as="geometry"/>
                </mxCell>
                <mxCell id="10" value="Namn" style="ellipse;whiteSpace=wrap;html=1;align=center;" vertex="1" parent="1">
                    <mxGeometry x="270" y="110" width="100" height="40" as="geometry"/>
                </mxCell>
                <mxCell id="11" value="Namn" style="ellipse;whiteSpace=wrap;html=1;align=center;" vertex="1" parent="1">
                    <mxGeometry x="850" y="470" width="100" height="40" as="geometry"/>
                </mxCell>
                <mxCell id="13" value="Lön" style="ellipse;whiteSpace=wrap;html=1;align=center;" vertex="1" parent="1">
                    <mxGeometry x="1000" y="510" width="100" height="40" as="geometry"/>
                </mxCell>
                <mxCell id="15" value="Anställd" style="whiteSpace=wrap;html=1;align=center;" vertex="1" parent="1">
                    <mxGeometry x="790" y="570" width="100" height="40" as="geometry"/>
                </mxCell>
                <mxCell id="16" value="Anställningsnr" style="ellipse;whiteSpace=wrap;html=1;align=center;fontStyle=4;" vertex="1" parent="1">
                    <mxGeometry x="960" y="610" width="100" height="40" as="geometry"/>
                </mxCell>
                <mxCell id="18" value="Roll" style="ellipse;whiteSpace=wrap;html=1;align=center;" vertex="1" parent="1">
                    <mxGeometry x="800" y="670" width="100" height="40" as="geometry"/>
                </mxCell>
                <mxCell id="19" value="Förnamn" style="ellipse;whiteSpace=wrap;html=1;align=center;" vertex="1" parent="1">
                    <mxGeometry x="810" y="380" width="100" height="40" as="geometry"/>
                </mxCell>
                <mxCell id="20" value="Efternamn" style="ellipse;whiteSpace=wrap;html=1;align=center;" vertex="1" parent="1">
                    <mxGeometry x="920" y="390" width="100" height="40" as="geometry"/>
                </mxCell>
                <mxCell id="21" value="Medlem" style="whiteSpace=wrap;html=1;align=center;" vertex="1" parent="1">
                    <mxGeometry x="460" y="-190" width="100" height="40" as="geometry"/>
                </mxCell>
                <mxCell id="22" value="Butik*!" style="ellipse;whiteSpace=wrap;html=1;align=center;fontStyle=4;" vertex="1" parent="1">
                    <mxGeometry x="390" y="-280" width="100" height="40" as="geometry"/>
                </mxCell>
                <mxCell id="23" value="Intresserad av" style="shape=rhombus;perimeter=rhombusPerimeter;whiteSpace=wrap;html=1;align=center;" vertex="1" parent="1">
                    <mxGeometry x="570" y="-260" width="120" height="60" as="geometry"/>
                </mxCell>
                <mxCell id="24" value="Filmer" style="whiteSpace=wrap;html=1;align=center;" vertex="1" parent="1">
                    <mxGeometry x="920" y="-50" width="100" height="40" as="geometry"/>
                </mxCell>
                <mxCell id="25" value="FilmNr" style="ellipse;whiteSpace=wrap;html=1;align=center;fontStyle=4;" vertex="1" parent="1">
                    <mxGeometry x="1030" y="-160" width="100" height="40" as="geometry"/>
                </mxCell>
                <mxCell id="26" value="Längd" style="ellipse;whiteSpace=wrap;html=1;align=center;" vertex="1" parent="1">
                    <mxGeometry x="1110" y="-70" width="100" height="40" as="geometry"/>
                </mxCell>
                <mxCell id="27" value="Titel" style="ellipse;whiteSpace=wrap;html=1;align=center;" vertex="1" parent="1">
                    <mxGeometry x="1120" y="20" width="100" height="40" as="geometry"/>
                </mxCell>
                <mxCell id="29" value="Filmpersonal" style="ellipse;whiteSpace=wrap;html=1;align=center;" vertex="1" parent="1">
                    <mxGeometry x="1110" y="110" width="100" height="40" as="geometry"/>
                </mxCell>
            </root>
        </mxGraphModel>
    </diagram>
</mxfile>